# xmcd CD database file
#
# Track frame offsets:
#	183
#	13845
#	27935
#	41305
#	54578
#	67095
#	77870
#	89110
#	103115
#	118240
#	128078
#	140445
#	150935
#	161223
#
# Disc length: 2360 seconds
#
# Revision: 0
# Processed by: cddbd v1.5.1PL0 Copyright (c) Steve Scherf et al.
# Submitted via: CDex 1.51
#
DISCID=c009360e
DTITLE=Kenny Rogers - I'm Gonna Sing You A Sad Song Suzy
DYEAR=1990
DGENRE=Country
TTITLE0=I'm Gonna Sing You A Sad Song Suzy
TTITLE1=Loser
TTITLE2=Sleep Comes Easy
TTITLE3=It's Gonna Be Better
TTITLE4=Love Woman
TTITLE5=Homemade Lies
TTITLE6=Hurry Up Love
TTITLE7=Molly
TTITLE8=Tell It All Brother
TTITLE9=Where Does Rosie Go
TTITLE10=Shadow In The Corner Of Your Mind
TTITLE11=Ticket To Nowhere
TTITLE12=Goodtime Liberator
TTITLE13=The Way It Used To Be
EXTD=YEAR: 1990
EXTT0=
EXTT1=
EXTT2=
EXTT3=
EXTT4=
EXTT5=
EXTT6=
EXTT7=
EXTT8=
EXTT9=
EXTT10=
EXTT11=
EXTT12=
EXTT13=
PLAYORDER=
